<?xml version="1.0" encoding="utf-8"?>
<!-- Generator: Adobe Illustrator 16.0.2, SVG Export Plug-In . SVG Version: 6.00 Build 0)  -->
<!DOCTYPE svg PUBLIC "-//W3C//DTD SVG 1.1//EN" "http://www.w3.org/Graphics/SVG/1.1/DTD/svg11.dtd">
<svg version="1.1" id="Layer_1" xmlns="http://www.w3.org/2000/svg" xmlns:xlink="http://www.w3.org/1999/xlink" x="0px" y="0px"
	 width="170.334px" height="100.661px" viewBox="0 0 170.334 100.661" enable-background="new 0 0 170.334 100.661"
	 xml:space="preserve">
<g>
	<path fill-rule="evenodd" clip-rule="evenodd" fill="#14538D" d="M97.853,82.385c-2.143-1.678-4.287-3.439-6.088-5.009
		c-3.888-3.391-6.169-5.89-11.27-6.57c-5.102-0.68-13.022,0.458-21.149,1.73c-8.127,1.271-16.46,2.674-24.267,3.765
		c-7.807,1.091-15.087,1.87-20.534,0.87c-5.448-1-9.061-3.778-11.462-5.613c-2.401-1.834-3.589-2.725-2.846-1.289
		c0.742,1.436,3.415,5.198,8.426,9.482c5.012,4.285,12.361,9.091,23.718,7.665c11.359-1.426,26.727-9.084,37.013-10.844
		c6.521-1.115,11,0.14,14.693,2.13l-8.94,2.03c13.312,2.446,13.092,3.606,24.109,9.267c3.899,2.004,9.245,3.786,14.592,4.727
		c5.348,0.94,10.693,1.039,13.948-0.31c1.98-0.82,4.769-4.017,5.704-5.934c0.613-1.255,0.987-2.874,0.831-5.364
		c-0.155-2.491-0.841-5.854-2.055-8.874c-1.215-3.019-2.957-5.697-4.701-8.375c-1.743-2.677-3.486-5.354-4.889-7.627
		c-1.4-2.273-2.459-4.141-3.175-5.511c-0.716-1.37-1.09-2.242-1.084-2.959c0.005-0.719,0.391-1.283,0.583-1.565
		c0.139-0.202,3.481-2.478,4.158-3.025c1.728-1.398,3.512-2.874,5.728-4.584s4.86-3.655,7.378-5.364
		c2.517-1.709,4.903-3.183,7.262-4.597c2.356-1.414,4.683-2.767,6.588-3.889c1.906-1.122,3.391-2.013,3.515-2.377
		c0.123-0.365-1.114-0.204-2.67,0.227c-1.555,0.432-3.427,1.134-5.767,2.125c-2.34,0.992-5.148,2.272-8.155,3.513
		c-3.007,1.242-6.213,2.445-8.404,3.147c-2.189,0.702-3.365,0.903-4.45,1.039c-1.086,0.136-2.083,0.207-3.076,0.423
		c-0.992,0.217-1.981,0.578-3.514,1.311c-1.532,0.732-3.608,1.834-5.272,2.854s-2.914,1.957-3.897,2.975
		c-0.981,1.016-1.695,2.113-2.14,3.28c-0.444,1.168-0.618,2.408-0.605,3.469c0.015,1.062,0.215,1.946,0.984,3.409
		c0.77,1.464,2.108,3.508,3.913,5.721c1.804,2.213,4.073,4.596,7.49,8.436c1.301,1.462,2.768,3.136,4.162,4.714
		c1.364,1.761,2.941,3.807,4.679,6.549c2.375,3.749,5.048,8.798,4.089,11.993c-0.959,3.194-5.552,4.534-9.779,4.3
		c-4.227-0.234-8.088-2.041-12.313-4.531C105.18,87.126,101.165,84.397,97.853,82.385 M109.035,43.62
		c0.986-1.514,2.459-2.59,3.784-3.089c1.959-0.738,3.594-0.215,4.803,0.785c1.208,1,1.99,2.478,2.182,3.659
		c0.06,0.359,0.063,0.691,0.034,0.991c0.165-0.224,0.35-0.456,0.555-0.694c1.223-1.416,3.132-2.984,5.355-4.673
		c2.225-1.689,4.765-3.499,7.275-5.145c2.51-1.646,4.987-3.129,6.981-4.314c1.995-1.187,3.505-2.076,3.111-2.083
		c-0.393-0.007-2.688,0.869-5.044,2.009c-2.356,1.14-4.772,2.547-7.915,4.875c-3.143,2.329-7.013,5.581-8.613,5.993
		c-1.6,0.413-0.932-2.013-1.512-3.141c-0.581-1.128-2.41-0.958-4.242-0.478c-1.833,0.48-3.667,1.271-4.968,2.535
		C110.009,41.641,109.404,42.617,109.035,43.62"/>
	<path fill-rule="evenodd" clip-rule="evenodd" fill="#009BBC" d="M107.799,98.521c-4.722-0.879-9.443-1.758-12.704-2.366
		c-3.261-0.607-5.059-0.941-9.009-1.711c-3.952-0.769-10.056-1.973-16.59-1.978c-6.535-0.006-13.5,1.187-13.019-0.632
		c0.48-1.818,8.406-6.649,15.62-7.824c7.213-1.174,13.716,1.307,19.546,4.335C97.475,91.373,102.637,94.947,107.799,98.521"/>
	<path fill-rule="evenodd" clip-rule="evenodd" fill="#14538D" d="M135.849,63.336c-1.014-4.275-3.615-7.405-3.799-11.32
		c-0.183-3.915,2.052-8.615,6.211-12.931c4.159-4.316,10.241-8.249,15.075-12.674c4.833-4.425,8.418-9.343,10.407-13.323
		c1.99-3.98,2.385-7.023,2.497-9.192c0.111-2.168-0.06-3.462,0.807-2.265c0.865,1.198,2.768,4.886,2.656,10.264
		s-2.235,12.444-8.337,18.704c-6.103,6.26-16.184,11.714-20.103,16.433c-3.918,4.718-1.673,8.702-1.57,13.817
		c0.101,5.114-1.941,11.36-2.675,11.772C136.286,73.034,136.862,67.613,135.849,63.336"/>
	<path fill-rule="evenodd" clip-rule="evenodd" fill="#FFFFFF" d="M123.569,37.094c1.117,0,2.024,0.965,2.024,2.154
		s-0.907,2.153-2.024,2.153c-1.118,0-2.025-0.964-2.025-2.153S122.451,37.094,123.569,37.094"/>
	<path fill-rule="evenodd" clip-rule="evenodd" fill="#14538D" d="M146.988,43.107c1.989-1.344,3.979-2.689,5.353-3.618
		c1.374-0.928,2.132-1.44,3.809-2.553c1.677-1.114,4.272-2.828,6.601-5.12c2.328-2.293,4.389-5.163,4.857-4.347
		c0.467,0.817-0.659,5.319-2.814,8.27c-2.156,2.951-5.342,4.35-8.481,5.319C153.173,42.028,150.08,42.568,146.988,43.107"/>
	<path fill-rule="evenodd" clip-rule="evenodd" fill="#009BBC" d="M144.899,45.333c1.827-0.483,3.655-0.967,4.918-1.3
		c1.262-0.334,1.958-0.518,3.492-0.91c1.535-0.392,3.909-0.993,6.234-2.093c2.326-1.099,4.603-2.698,4.738-1.97
		s-1.869,3.783-4.237,5.416c-2.369,1.634-5.099,1.847-7.684,1.753C149.776,46.135,147.337,45.734,144.899,45.333"/>
	<path fill-rule="evenodd" clip-rule="evenodd" fill="#2F66AF" d="M59.95,80.898c-2.256,0.824-4.512,1.647-6.069,2.216
		c-1.558,0.569-2.417,0.882-4.302,1.588c-1.885,0.706-4.795,1.804-8.017,2.346c-3.222,0.543-6.756,0.529-6.368,1.387
		c0.387,0.857,4.695,2.585,8.349,2.568c3.654-0.017,6.655-1.777,9.281-3.752C55.449,85.277,57.7,83.087,59.95,80.898"/>
	<path fill-rule="evenodd" clip-rule="evenodd" fill="#009BBC" d="M62.977,80.511c-1.463,1.197-2.927,2.395-3.937,3.222
		c-1.01,0.827-1.567,1.283-2.784,2.296c-1.218,1.014-3.097,2.585-5.351,3.825c-2.254,1.239-4.883,2.146-4.373,2.683
		c0.51,0.536,4.16,0.702,6.872-0.258c2.712-0.961,4.486-3.048,5.924-5.197C60.768,84.933,61.872,82.722,62.977,80.511"/>
	<path fill-rule="evenodd" clip-rule="evenodd" fill="#009BBC" d="M135.677,76.281c0.167,1.46,0.334,2.919,0.449,3.926
		c0.115,1.008,0.179,1.564,0.335,2.784c0.156,1.221,0.405,3.107,0.038,5.138c-0.367,2.031-1.35,4.207-0.425,4.04
		s3.757-2.677,4.745-4.931c0.986-2.253,0.131-4.25-1.034-6.033C138.621,79.42,137.149,77.852,135.677,76.281"/>
	<path fill-rule="evenodd" clip-rule="evenodd" fill="#14538D" d="M20.99,12.667c0.095,0,0.185,0.017,0.268,0.05
		c0.084,0.035,0.156,0.084,0.22,0.145c0.062,0.064,0.11,0.137,0.145,0.22c0.033,0.084,0.051,0.172,0.051,0.266v8.944
		c0,0.097-0.018,0.187-0.053,0.27c-0.033,0.082-0.081,0.152-0.145,0.216c-0.062,0.061-0.136,0.11-0.22,0.145
		c-0.084,0.033-0.174,0.051-0.268,0.051c-0.099,0-0.189-0.018-0.273-0.051c-0.081-0.035-0.154-0.084-0.216-0.145
		c-0.063-0.064-0.112-0.134-0.145-0.216c-0.035-0.081-0.053-0.171-0.053-0.27V14.04h-4.592v8.253c0,0.099-0.018,0.189-0.053,0.27
		c-0.033,0.082-0.081,0.152-0.146,0.216c-0.062,0.061-0.137,0.11-0.22,0.145c-0.084,0.033-0.174,0.051-0.268,0.051
		c-0.1,0-0.19-0.018-0.273-0.051c-0.082-0.035-0.154-0.084-0.216-0.145c-0.064-0.064-0.112-0.134-0.145-0.216
		c-0.035-0.083-0.053-0.173-0.053-0.27v-8.944c0-0.094,0.018-0.182,0.051-0.266c0.035-0.083,0.083-0.156,0.145-0.22
		c0.064-0.061,0.136-0.11,0.218-0.145c0.081-0.033,0.171-0.05,0.27-0.05H20.99z M24.987,14.04v4.091h1.302
		c0.279,0,0.543-0.053,0.789-0.16c0.247-0.108,0.465-0.253,0.652-0.438s0.334-0.4,0.444-0.649c0.11-0.249,0.165-0.515,0.165-0.798
		c0-0.288-0.055-0.555-0.165-0.806c-0.11-0.248-0.257-0.464-0.444-0.648c-0.187-0.185-0.405-0.33-0.654-0.434
		c-0.25-0.105-0.512-0.158-0.787-0.158H24.987z M23.614,22.292v-8.944c0-0.094,0.018-0.182,0.051-0.266
		c0.035-0.083,0.083-0.156,0.145-0.22c0.064-0.061,0.136-0.11,0.218-0.145c0.081-0.033,0.171-0.05,0.27-0.05h1.986
		c0.311,0,0.612,0.041,0.902,0.123c0.291,0.081,0.561,0.198,0.816,0.347c0.253,0.15,0.486,0.33,0.695,0.539
		c0.211,0.209,0.392,0.44,0.539,0.693c0.15,0.253,0.266,0.526,0.35,0.816s0.125,0.589,0.125,0.9c0,0.937-0.336,1.744-1.011,2.417
		c-0.667,0.666-1.47,1.001-2.411,1.001h-1.302v2.789c0,0.189-0.066,0.349-0.2,0.481c-0.135,0.135-0.297,0.201-0.487,0.201
		c-0.189,0-0.352-0.066-0.486-0.201C23.68,22.642,23.614,22.479,23.614,22.292 M36.816,14.04c-0.532,0-1.018,0.092-1.458,0.277
		c-0.44,0.185-0.847,0.462-1.221,0.836c-0.374,0.372-0.653,0.779-0.836,1.214c-0.182,0.438-0.272,0.922-0.272,1.454
		c0,1.047,0.369,1.938,1.108,2.675c0.739,0.736,1.632,1.106,2.679,1.106s1.94-0.37,2.679-1.106c0.739-0.737,1.109-1.628,1.109-2.675
		c0-1.043-0.37-1.931-1.109-2.668C38.754,14.412,37.859,14.04,36.816,14.04 M41.976,17.821c0,1.421-0.506,2.637-1.515,3.647
		c-1.008,1.005-2.222,1.507-3.645,1.507c-1.427,0-2.644-0.502-3.651-1.507c-1.005-1.005-1.509-2.222-1.509-3.647
		c0-1.421,0.504-2.635,1.509-3.64c1.012-1.01,2.228-1.513,3.651-1.513c1.419,0,2.633,0.503,3.645,1.513
		c0.508,0.508,0.886,1.062,1.137,1.663C41.851,16.444,41.976,17.104,41.976,17.821 M45.381,22.515l1.837-6.616l1.83,6.609
		c0.033,0.132,0.112,0.242,0.235,0.33c0.121,0.088,0.262,0.132,0.423,0.132c0.136,0,0.266-0.039,0.389-0.119
		c0.121-0.079,0.207-0.191,0.255-0.336l1.837-6.616l1.841,6.616c0.031,0.094,0.083,0.18,0.163,0.257
		c0.131,0.132,0.292,0.198,0.481,0.198s0.35-0.066,0.482-0.198c0.13-0.134,0.196-0.295,0.196-0.484
		c-0.005-0.086-0.02-0.176-0.046-0.27l-2.429-8.801c-0.059-0.167-0.149-0.301-0.27-0.402s-0.26-0.152-0.418-0.152
		c-0.194,0-0.354,0.071-0.478,0.207c-0.09,0.095-0.16,0.207-0.206,0.334l-1.797,6.513l-1.799-6.5
		c-0.06-0.167-0.15-0.301-0.271-0.402c-0.119-0.101-0.26-0.152-0.418-0.152c-0.194,0-0.354,0.071-0.484,0.207
		c-0.086,0.086-0.152,0.198-0.2,0.334l-2.442,8.82c-0.026,0.099-0.039,0.187-0.039,0.264c0,0.189,0.068,0.35,0.2,0.484
		c0.134,0.132,0.295,0.198,0.484,0.198s0.35-0.066,0.484-0.198C45.294,22.695,45.346,22.609,45.381,22.515 M60.851,21.602
		c0.213,0,0.416-0.042,0.605-0.123c0.189-0.082,0.354-0.192,0.493-0.33c0.14-0.141,0.25-0.304,0.332-0.493
		c0.081-0.189,0.123-0.391,0.123-0.605c0-0.215-0.042-0.415-0.123-0.604c-0.082-0.19-0.192-0.353-0.332-0.493
		c-0.139-0.139-0.304-0.249-0.493-0.33S61.064,18.5,60.851,18.5h-2.05v3.101H60.851z M58.801,17.127h2.052
		c0.4,0,0.779,0.077,1.133,0.233c0.354,0.154,0.664,0.366,0.928,0.632c0.266,0.266,0.475,0.576,0.629,0.93
		c0.156,0.352,0.234,0.728,0.234,1.128c0,0.401-0.078,0.777-0.234,1.129c-0.154,0.354-0.365,0.664-0.629,0.93
		c-0.264,0.266-0.574,0.477-0.93,0.631c-0.354,0.156-0.733,0.234-1.133,0.234h-2.738c-0.099,0-0.19-0.018-0.271-0.051
		c-0.081-0.035-0.154-0.084-0.215-0.145c-0.064-0.064-0.113-0.134-0.148-0.216c-0.033-0.083-0.05-0.173-0.05-0.27v-8.944
		c0-0.094,0.017-0.182,0.052-0.266c0.033-0.083,0.082-0.156,0.146-0.22c0.061-0.061,0.134-0.11,0.215-0.145
		c0.084-0.033,0.174-0.05,0.273-0.05c0.094,0,0.184,0.017,0.268,0.05c0.084,0.035,0.159,0.084,0.22,0.145
		c0.064,0.062,0.112,0.137,0.145,0.218c0.035,0.084,0.053,0.174,0.053,0.268V17.127z M64.397,13.349
		c0-0.094,0.017-0.182,0.053-0.266c0.032-0.083,0.081-0.156,0.145-0.22c0.061-0.061,0.134-0.11,0.215-0.145
		c0.084-0.033,0.174-0.05,0.273-0.05c0.094,0,0.185,0.017,0.268,0.05c0.084,0.035,0.159,0.084,0.22,0.145
		c0.064,0.064,0.112,0.137,0.145,0.22c0.036,0.084,0.053,0.172,0.053,0.266v8.944c0,0.097-0.017,0.187-0.053,0.27
		c-0.033,0.082-0.081,0.152-0.145,0.216c-0.061,0.061-0.136,0.11-0.22,0.145c-0.083,0.033-0.174,0.051-0.268,0.051
		c-0.099,0-0.189-0.018-0.273-0.051c-0.081-0.035-0.154-0.084-0.215-0.145c-0.064-0.064-0.113-0.134-0.145-0.216
		c-0.036-0.083-0.053-0.173-0.053-0.27V13.349z M67.764,13.349c0-0.094,0.018-0.182,0.053-0.266c0.033-0.083,0.081-0.156,0.145-0.22
		c0.062-0.061,0.135-0.11,0.216-0.145c0.084-0.033,0.174-0.05,0.273-0.05c0.094,0,0.182,0.017,0.266,0.055
		c0.081,0.035,0.154,0.083,0.215,0.145c0.064,0.059,0.112,0.132,0.15,0.215c0.037,0.084,0.055,0.172,0.055,0.266v8.253h2.613v-8.253
		c0-0.094,0.017-0.182,0.053-0.266c0.033-0.083,0.081-0.156,0.146-0.22c0.062-0.061,0.134-0.11,0.215-0.145
		c0.084-0.033,0.174-0.05,0.272-0.05c0.096,0,0.184,0.017,0.267,0.055c0.082,0.035,0.154,0.083,0.216,0.145
		c0.064,0.059,0.112,0.132,0.149,0.215c0.038,0.084,0.055,0.172,0.055,0.266v8.253h2.587v-8.253c0-0.094,0.018-0.182,0.055-0.266
		c0.037-0.083,0.086-0.156,0.15-0.215c0.061-0.062,0.134-0.11,0.215-0.145c0.084-0.038,0.172-0.055,0.266-0.055
		c0.096,0,0.186,0.017,0.27,0.05c0.083,0.035,0.158,0.084,0.22,0.145c0.063,0.064,0.112,0.137,0.146,0.22
		c0.035,0.084,0.053,0.172,0.053,0.266v8.944c0,0.097-0.018,0.187-0.051,0.27c-0.035,0.082-0.084,0.152-0.146,0.216
		c-0.063,0.061-0.136,0.11-0.22,0.145c-0.084,0.033-0.174,0.051-0.268,0.051h-7.95c-0.099,0-0.189-0.018-0.27-0.051
		c-0.084-0.035-0.154-0.084-0.218-0.145c-0.062-0.064-0.11-0.134-0.145-0.216c-0.033-0.083-0.051-0.173-0.051-0.27V13.349z
		 M80.428,22.557c-0.133,0.279-0.343,0.418-0.632,0.418c-0.099,0-0.188-0.018-0.27-0.051c-0.081-0.035-0.154-0.084-0.217-0.145
		c-0.061-0.064-0.109-0.134-0.145-0.216c-0.035-0.083-0.05-0.173-0.05-0.27c0-0.091,0.017-0.183,0.057-0.277l3.453-8.871
		c0.139-0.319,0.354-0.477,0.651-0.477c0.297,0,0.515,0.158,0.65,0.477l3.453,8.871c0.04,0.09,0.061,0.182,0.061,0.277
		c0,0.097-0.019,0.187-0.054,0.27c-0.033,0.082-0.081,0.152-0.145,0.216c-0.063,0.061-0.134,0.11-0.218,0.145
		c-0.084,0.033-0.175,0.051-0.269,0.051c-0.302,0-0.513-0.139-0.638-0.418l-2.842-7.318L80.428,22.557z M96.078,21.602
		c0.188,0,0.351,0.066,0.484,0.2c0.134,0.134,0.199,0.297,0.199,0.486s-0.065,0.352-0.199,0.486
		c-0.134,0.135-0.296,0.201-0.484,0.201h-5.963c-0.101,0-0.19-0.018-0.273-0.051c-0.082-0.035-0.154-0.084-0.216-0.145
		c-0.063-0.064-0.112-0.134-0.145-0.216c-0.035-0.083-0.054-0.173-0.054-0.27v-8.944c0-0.094,0.019-0.182,0.054-0.266
		c0.032-0.083,0.081-0.156,0.145-0.22c0.062-0.061,0.134-0.11,0.216-0.145c0.083-0.033,0.173-0.05,0.273-0.05h5.963
		c0.188,0,0.351,0.066,0.484,0.2s0.199,0.297,0.199,0.486s-0.065,0.352-0.199,0.486c-0.134,0.134-0.296,0.2-0.484,0.2h-5.277v3.088
		h3.79c0.189,0,0.35,0.066,0.481,0.2c0.135,0.135,0.201,0.297,0.201,0.486c0,0.19-0.066,0.352-0.201,0.487
		c-0.132,0.134-0.292,0.2-0.481,0.2h-3.79v3.101H96.078z M106.057,22.292c0,0.187-0.065,0.349-0.199,0.481
		c-0.135,0.135-0.298,0.201-0.486,0.201c-0.189,0-0.353-0.066-0.486-0.201c-0.134-0.132-0.201-0.294-0.201-0.483V18.5h-4.592v3.79
		c0,0.189-0.065,0.351-0.2,0.483c-0.134,0.135-0.297,0.201-0.485,0.201c-0.19,0-0.353-0.066-0.486-0.201
		c-0.135-0.132-0.2-0.294-0.2-0.481v-8.944c0-0.187,0.065-0.349,0.2-0.481c0.134-0.134,0.296-0.2,0.486-0.2
		c0.188,0,0.352,0.066,0.485,0.2c0.135,0.132,0.2,0.292,0.2,0.481v3.779h4.592v-3.779c0-0.189,0.067-0.349,0.201-0.481
		c0.134-0.134,0.297-0.2,0.486-0.2c0.188,0,0.352,0.066,0.486,0.2c0.134,0.132,0.199,0.294,0.199,0.481V22.292z M115.348,22.292
		c0,0.187-0.065,0.349-0.199,0.481c-0.135,0.135-0.298,0.201-0.486,0.201c-0.189,0-0.353-0.066-0.486-0.201
		c-0.134-0.132-0.2-0.294-0.2-0.483V18.5h-4.593v3.79c0,0.189-0.065,0.351-0.2,0.483c-0.134,0.135-0.297,0.201-0.485,0.201
		c-0.189,0-0.353-0.066-0.486-0.201c-0.135-0.132-0.2-0.294-0.2-0.481v-8.944c0-0.187,0.065-0.349,0.2-0.481
		c0.134-0.134,0.297-0.2,0.486-0.2c0.188,0,0.352,0.066,0.485,0.2c0.135,0.132,0.2,0.292,0.2,0.481v3.779h4.593v-3.779
		c0-0.189,0.066-0.349,0.2-0.481c0.134-0.134,0.297-0.2,0.486-0.2c0.188,0,0.352,0.066,0.486,0.2
		c0.134,0.132,0.199,0.294,0.199,0.481V22.292z M122.594,18.131l-1.122-2.892l-1.122,2.892H122.594z M117.381,21.981l3.44-8.85
		c0.139-0.311,0.354-0.464,0.65-0.464c0.307,0,0.523,0.153,0.651,0.464l3.453,8.884c0.036,0.085,0.053,0.178,0.053,0.277
		c0,0.187-0.066,0.349-0.2,0.481c-0.134,0.135-0.295,0.201-0.483,0.201c-0.189,0-0.348-0.066-0.478-0.201
		c-0.067-0.068-0.119-0.14-0.153-0.217l-1.192-3.053h-3.3l-1.198,3.053c-0.033,0.077-0.086,0.149-0.154,0.217
		c-0.134,0.135-0.295,0.201-0.483,0.201c-0.19,0-0.349-0.066-0.48-0.201c-0.132-0.132-0.195-0.294-0.195-0.481
		C117.311,22.188,117.332,22.085,117.381,21.981 M133.022,14.04v3.59h-1.807c-0.248,0-0.483-0.047-0.701-0.141
		c-0.22-0.095-0.409-0.225-0.571-0.39c-0.161-0.165-0.288-0.354-0.384-0.571c-0.095-0.216-0.141-0.447-0.141-0.691
		c0-0.246,0.046-0.482,0.141-0.699c0.096-0.218,0.225-0.409,0.388-0.572c0.163-0.163,0.354-0.291,0.574-0.385
		c0.218-0.095,0.45-0.141,0.694-0.141H133.022z M134.381,22.291v-8.942c0-0.094-0.017-0.182-0.052-0.266
		c-0.034-0.083-0.082-0.156-0.145-0.22c-0.063-0.061-0.134-0.11-0.215-0.145c-0.081-0.033-0.171-0.05-0.271-0.05h-2.483
		c-0.433,0-0.84,0.083-1.225,0.25c-0.383,0.167-0.717,0.396-1.003,0.684c-0.286,0.286-0.511,0.623-0.678,1.008
		c-0.168,0.385-0.251,0.794-0.251,1.227c0,0.284,0.035,0.559,0.105,0.827c0.071,0.269,0.176,0.524,0.315,0.761
		c0.141,0.238,0.314,0.46,0.521,0.662c0.209,0.205,0.451,0.385,0.724,0.539l-2.052,3.293c-0.073,0.118-0.11,0.244-0.11,0.372
		c0,0.099,0.018,0.189,0.054,0.272c0.032,0.082,0.081,0.152,0.142,0.216c0.064,0.061,0.137,0.11,0.22,0.145
		c0.085,0.033,0.173,0.051,0.268,0.051c0.241,0,0.435-0.113,0.587-0.335l2.271-3.638h1.919v3.291c0,0.189,0.065,0.349,0.197,0.481
		c0.132,0.135,0.293,0.201,0.482,0.201c0.187,0,0.347-0.066,0.479-0.201C134.315,22.642,134.381,22.479,134.381,22.291"/>
	<path fill-rule="evenodd" clip-rule="evenodd" fill="#14538D" d="M21.555,34.998c-0.077,0.442-0.231,0.854-0.462,1.232
		c-0.233,0.38-0.516,0.708-0.851,0.985c-0.334,0.277-0.708,0.493-1.124,0.649c-0.413,0.156-0.847,0.235-1.298,0.235
		c-0.897,0-1.686-0.277-2.368-0.829c-0.117-0.081-0.251-0.121-0.401-0.121c-0.094,0-0.182,0.018-0.264,0.055
		c-0.081,0.038-0.154,0.086-0.215,0.145c-0.064,0.06-0.112,0.132-0.15,0.216c-0.035,0.083-0.055,0.174-0.055,0.268
		c0,0.203,0.073,0.365,0.213,0.491c0.957,0.765,2.037,1.148,3.24,1.148c1.426,0,2.642-0.502,3.647-1.507
		c1.003-1.005,1.507-2.221,1.507-3.647c0-1.42-0.504-2.635-1.507-3.64c-1.009-1.009-2.226-1.513-3.647-1.513
		c-1.218,0-2.32,0.402-3.303,1.207c-0.121,0.113-0.181,0.269-0.181,0.471c0,0.099,0.018,0.189,0.051,0.271
		c0.035,0.081,0.083,0.154,0.145,0.217c0.062,0.062,0.137,0.11,0.22,0.146c0.084,0.033,0.172,0.05,0.266,0.05
		c0.159,0,0.317-0.064,0.471-0.193c0.325-0.258,0.686-0.454,1.08-0.59c0.391-0.139,0.809-0.207,1.251-0.207
		c0.451,0,0.885,0.077,1.303,0.233c0.415,0.157,0.791,0.372,1.126,0.647c0.334,0.277,0.618,0.603,0.847,0.979
		c0.231,0.376,0.382,0.785,0.459,1.229h-4.229c-0.194,0-0.357,0.067-0.489,0.199c-0.129,0.131-0.195,0.294-0.195,0.488
		c0,0.099,0.017,0.189,0.052,0.272c0.033,0.082,0.082,0.155,0.145,0.216c0.062,0.064,0.135,0.112,0.218,0.145
		c0.084,0.035,0.174,0.053,0.269,0.053H21.555z M24.916,29.847c0-0.187,0.066-0.35,0.201-0.482c0.134-0.134,0.297-0.2,0.486-0.2
		s0.352,0.066,0.486,0.2c0.134,0.132,0.2,0.295,0.2,0.482v3.814l4.285-4.283c0.143-0.143,0.308-0.213,0.497-0.213
		c0.094,0,0.182,0.017,0.266,0.05c0.086,0.036,0.158,0.084,0.22,0.146c0.061,0.064,0.11,0.136,0.145,0.22
		c0.035,0.083,0.051,0.171,0.051,0.266c0,0.189-0.066,0.352-0.198,0.484l-3.379,3.383l3.449,4.669
		c0.086,0.121,0.128,0.249,0.128,0.387c0,0.09-0.016,0.178-0.051,0.264c-0.035,0.086-0.081,0.161-0.143,0.224
		c-0.059,0.066-0.13,0.117-0.211,0.157c-0.081,0.037-0.17,0.057-0.264,0.057c-0.255,0-0.444-0.097-0.574-0.29l-3.313-4.492
		l-0.908,0.909v3.189c0,0.189-0.066,0.352-0.2,0.484c-0.134,0.134-0.297,0.2-0.486,0.2s-0.352-0.066-0.486-0.2
		c-0.135-0.132-0.201-0.295-0.201-0.482V29.847z M38.094,30.537c-0.532,0-1.018,0.093-1.458,0.278
		c-0.44,0.184-0.847,0.461-1.221,0.835c-0.374,0.372-0.653,0.779-0.836,1.214c-0.182,0.438-0.273,0.922-0.273,1.454
		c0,1.047,0.37,1.938,1.109,2.675c0.739,0.737,1.632,1.106,2.679,1.106c1.047,0,1.94-0.369,2.679-1.106
		c0.739-0.737,1.108-1.628,1.108-2.675c0-1.042-0.369-1.931-1.108-2.668C40.032,30.909,39.137,30.537,38.094,30.537 M43.254,34.318
		c0,1.421-0.506,2.638-1.515,3.647c-1.008,1.005-2.222,1.507-3.645,1.507c-1.427,0-2.644-0.502-3.651-1.507
		c-1.005-1.005-1.509-2.221-1.509-3.647c0-1.42,0.504-2.635,1.509-3.64c1.011-1.009,2.228-1.513,3.651-1.513
		c1.419,0,2.633,0.504,3.645,1.513c0.508,0.508,0.886,1.062,1.137,1.663C43.129,32.94,43.254,33.601,43.254,34.318 M46.613,39.054
		c-0.132,0.279-0.343,0.418-0.631,0.418c-0.099,0-0.189-0.018-0.271-0.051c-0.081-0.035-0.154-0.083-0.215-0.145
		c-0.062-0.064-0.11-0.134-0.145-0.215c-0.036-0.084-0.051-0.174-0.051-0.271c0-0.09,0.018-0.182,0.057-0.277l3.453-8.871
		c0.139-0.319,0.355-0.477,0.652-0.477c0.296,0,0.514,0.158,0.65,0.477l3.454,8.871c0.04,0.09,0.059,0.183,0.059,0.277
		c0,0.097-0.017,0.187-0.053,0.271c-0.032,0.081-0.081,0.151-0.145,0.215c-0.061,0.062-0.134,0.11-0.217,0.145
		c-0.084,0.033-0.174,0.051-0.269,0.051c-0.301,0-0.512-0.139-0.638-0.418l-2.841-7.318L46.613,39.054z M60.8,30.537
		c-0.532,0-1.018,0.093-1.458,0.278c-0.44,0.184-0.847,0.461-1.221,0.835c-0.374,0.372-0.653,0.779-0.835,1.214
		c-0.183,0.438-0.273,0.922-0.273,1.454c0,1.047,0.369,1.938,1.108,2.675c0.739,0.737,1.632,1.106,2.679,1.106
		c1.047,0,1.94-0.369,2.679-1.106s1.109-1.628,1.109-2.675c0-1.042-0.37-1.931-1.109-2.668C62.738,30.909,61.843,30.537,60.8,30.537
		 M65.96,34.318c0,1.421-0.505,2.638-1.515,3.647c-1.007,1.005-2.222,1.507-3.645,1.507c-1.427,0-2.643-0.502-3.651-1.507
		c-1.005-1.005-1.509-2.221-1.509-3.647c0-1.42,0.504-2.635,1.509-3.64c1.012-1.009,2.228-1.513,3.651-1.513
		c1.419,0,2.633,0.504,3.645,1.513c0.508,0.508,0.886,1.062,1.137,1.663C65.835,32.94,65.96,33.601,65.96,34.318 M67.998,29.847
		c0-0.095,0.017-0.183,0.05-0.266c0.035-0.084,0.084-0.156,0.145-0.22c0.064-0.062,0.135-0.11,0.216-0.146
		c0.083-0.033,0.174-0.05,0.273-0.05h5.457c0.095,0,0.183,0.017,0.267,0.053c0.086,0.033,0.157,0.081,0.22,0.145
		c0.061,0.062,0.11,0.136,0.145,0.22c0.035,0.083,0.052,0.173,0.052,0.268c0,0.099-0.017,0.189-0.052,0.273
		c-0.034,0.081-0.084,0.154-0.145,0.216c-0.063,0.063-0.134,0.112-0.22,0.145c-0.084,0.035-0.172,0.052-0.267,0.052h-4.782v8.26
		c0,0.09-0.018,0.176-0.055,0.257c-0.035,0.081-0.086,0.154-0.148,0.216c-0.063,0.061-0.136,0.112-0.22,0.147
		c-0.083,0.037-0.169,0.055-0.259,0.055c-0.216,0-0.385-0.073-0.508-0.216c-0.121-0.145-0.183-0.319-0.183-0.525
		c0-0.005,0.005-0.02,0.014-0.044V29.847z M85.064,38.788v-8.941c0-0.095-0.019-0.183-0.054-0.266
		c-0.033-0.084-0.081-0.156-0.145-0.22c-0.062-0.062-0.134-0.11-0.216-0.146c-0.081-0.033-0.172-0.05-0.271-0.05
		c-0.2,0-0.376,0.083-0.528,0.251l-5.742,7.388v-6.957c0-0.189-0.066-0.35-0.2-0.482c-0.132-0.134-0.293-0.2-0.48-0.2
		c-0.188,0-0.349,0.066-0.48,0.2c-0.132,0.132-0.198,0.293-0.198,0.482v8.941c0,0.099,0.017,0.189,0.05,0.273
		c0.036,0.081,0.084,0.151,0.146,0.215c0.062,0.062,0.135,0.11,0.22,0.145c0.084,0.033,0.172,0.051,0.267,0.051
		c0.202,0,0.376-0.079,0.521-0.238l5.752-7.39v6.944c0,0.189,0.066,0.352,0.198,0.484c0.132,0.134,0.292,0.2,0.48,0.2
		c0.188,0,0.349-0.066,0.48-0.2C84.998,39.14,85.064,38.977,85.064,38.788 M92.494,30.537v3.59h-1.807
		c-0.247,0-0.482-0.046-0.7-0.141c-0.221-0.094-0.409-0.224-0.572-0.389c-0.161-0.165-0.288-0.354-0.383-0.572
		c-0.096-0.216-0.142-0.446-0.142-0.691c0-0.246,0.046-0.481,0.142-0.699c0.095-0.218,0.224-0.409,0.387-0.572
		c0.163-0.163,0.354-0.29,0.574-0.385c0.218-0.094,0.451-0.141,0.694-0.141H92.494z M93.854,38.788v-8.941
		c0-0.095-0.018-0.183-0.053-0.266c-0.033-0.084-0.082-0.156-0.143-0.22c-0.064-0.062-0.134-0.11-0.216-0.146
		c-0.081-0.033-0.171-0.05-0.271-0.05h-2.484c-0.433,0-0.84,0.083-1.225,0.251c-0.382,0.167-0.717,0.395-1.003,0.684
		c-0.286,0.286-0.51,0.622-0.677,1.007c-0.167,0.385-0.251,0.794-0.251,1.227c0,0.284,0.035,0.559,0.104,0.827
		c0.071,0.269,0.178,0.524,0.315,0.762c0.141,0.237,0.314,0.459,0.521,0.661c0.209,0.205,0.451,0.385,0.725,0.539l-2.053,3.293
		c-0.072,0.119-0.109,0.244-0.109,0.372c0,0.099,0.017,0.189,0.053,0.273c0.033,0.081,0.081,0.151,0.144,0.215
		c0.063,0.062,0.136,0.11,0.22,0.145c0.083,0.033,0.171,0.051,0.266,0.051c0.242,0,0.436-0.112,0.587-0.334l2.272-3.639h1.918v3.291
		c0,0.189,0.065,0.35,0.198,0.482c0.132,0.134,0.293,0.2,0.481,0.2c0.188,0,0.348-0.066,0.479-0.2
		C93.788,39.14,93.854,38.977,93.854,38.788"/>
	<path fill-rule="evenodd" clip-rule="evenodd" fill="#14538D" d="M22.237,47.833v5.675h-2.855c-0.393,0-0.764-0.074-1.109-0.223
		c-0.347-0.149-0.646-0.355-0.904-0.615c-0.254-0.261-0.455-0.56-0.605-0.904c-0.149-0.341-0.222-0.706-0.222-1.092
		c0-0.389,0.073-0.762,0.222-1.106c0.15-0.344,0.355-0.647,0.612-0.904c0.257-0.257,0.56-0.459,0.908-0.608
		c0.344-0.15,0.713-0.223,1.098-0.223H22.237z M24.386,60.875V46.742c0-0.149-0.028-0.288-0.084-0.42
		c-0.052-0.133-0.129-0.247-0.226-0.348c-0.101-0.097-0.212-0.174-0.34-0.23c-0.129-0.052-0.272-0.08-0.428-0.08h-3.926
		c-0.685,0-1.328,0.133-1.936,0.397c-0.605,0.264-1.134,0.626-1.586,1.081c-0.452,0.452-0.806,0.984-1.071,1.593
		c-0.264,0.608-0.396,1.255-0.396,1.94c0,0.448,0.056,0.883,0.167,1.307c0.111,0.424,0.278,0.828,0.497,1.203
		c0.222,0.376,0.497,0.727,0.824,1.047c0.33,0.323,0.713,0.608,1.144,0.851l-3.244,5.205c-0.115,0.188-0.174,0.387-0.174,0.588
		c0,0.157,0.028,0.299,0.084,0.431c0.052,0.129,0.128,0.24,0.226,0.341c0.1,0.097,0.215,0.174,0.347,0.23
		c0.132,0.052,0.272,0.079,0.421,0.079c0.382,0,0.689-0.177,0.928-0.528l3.592-5.751h3.032v5.202c0,0.299,0.104,0.552,0.313,0.761
		c0.208,0.212,0.462,0.316,0.761,0.316c0.296,0,0.55-0.104,0.758-0.316C24.281,61.432,24.386,61.175,24.386,60.875 M29.74,61.23
		l2.904-10.459l2.893,10.448c0.052,0.209,0.177,0.383,0.372,0.522c0.191,0.139,0.413,0.208,0.667,0.208
		c0.216,0,0.421-0.062,0.616-0.187c0.191-0.125,0.326-0.303,0.403-0.532l2.903-10.459l2.91,10.459
		c0.049,0.149,0.132,0.285,0.258,0.407c0.208,0.208,0.462,0.312,0.761,0.312c0.299,0,0.553-0.104,0.761-0.312
		c0.206-0.213,0.31-0.466,0.31-0.765c-0.007-0.136-0.031-0.278-0.073-0.428l-3.839-13.911c-0.093-0.264-0.236-0.477-0.427-0.637
		c-0.191-0.159-0.411-0.239-0.661-0.239c-0.306,0-0.56,0.111-0.754,0.327c-0.143,0.149-0.254,0.326-0.327,0.528l-2.841,10.295
		l-2.844-10.274c-0.094-0.264-0.237-0.477-0.428-0.637c-0.188-0.159-0.41-0.239-0.66-0.239c-0.306,0-0.56,0.111-0.765,0.327
		c-0.136,0.135-0.24,0.312-0.316,0.528l-3.86,13.942c-0.042,0.157-0.062,0.296-0.062,0.418c0,0.299,0.107,0.552,0.316,0.765
		c0.212,0.208,0.466,0.312,0.765,0.312c0.299,0,0.553-0.104,0.765-0.312C29.602,61.516,29.685,61.38,29.74,61.23 M57.149,54.301
		l-1.773-4.572l-1.773,4.572H57.149z M48.909,60.389l5.438-13.991c0.219-0.49,0.56-0.734,1.029-0.734
		c0.483,0,0.828,0.244,1.029,0.734l5.459,14.044c0.056,0.135,0.083,0.281,0.083,0.438c0,0.295-0.104,0.552-0.316,0.761
		c-0.212,0.212-0.466,0.316-0.765,0.316c-0.299,0-0.549-0.104-0.754-0.316c-0.108-0.108-0.188-0.222-0.244-0.344l-1.884-4.826
		h-5.216l-1.894,4.826c-0.053,0.122-0.136,0.236-0.244,0.344c-0.212,0.212-0.466,0.316-0.765,0.316
		c-0.299,0-0.549-0.104-0.758-0.316c-0.208-0.209-0.309-0.466-0.309-0.761C48.798,60.716,48.833,60.553,48.909,60.389
		 M67.191,61.297c-0.208,0.441-0.542,0.66-0.998,0.66c-0.156,0-0.299-0.027-0.427-0.079c-0.129-0.056-0.244-0.133-0.341-0.23
		c-0.098-0.101-0.174-0.212-0.23-0.341c-0.055-0.132-0.08-0.274-0.08-0.427c0-0.143,0.028-0.289,0.091-0.438l5.458-14.023
		c0.22-0.504,0.56-0.755,1.03-0.755c0.469,0,0.813,0.251,1.028,0.755l5.459,14.023c0.063,0.142,0.094,0.288,0.094,0.438
		c0,0.153-0.027,0.295-0.083,0.427c-0.053,0.129-0.13,0.24-0.229,0.341c-0.098,0.097-0.212,0.174-0.345,0.23
		c-0.132,0.052-0.274,0.079-0.424,0.079c-0.477,0-0.811-0.219-1.009-0.66l-4.491-11.568L67.191,61.297z M89.785,54.301l-1.774-4.572
		l-1.772,4.572H89.785z M81.544,60.389l5.438-13.991c0.219-0.49,0.56-0.734,1.028-0.734c0.484,0,0.828,0.244,1.03,0.734
		l5.458,14.044c0.056,0.135,0.084,0.281,0.084,0.438c0,0.295-0.105,0.552-0.317,0.761c-0.212,0.212-0.465,0.316-0.764,0.316
		c-0.3,0-0.55-0.104-0.755-0.316c-0.108-0.108-0.188-0.222-0.244-0.344l-1.884-4.826h-5.215l-1.896,4.826
		c-0.052,0.122-0.136,0.236-0.244,0.344c-0.212,0.212-0.465,0.316-0.764,0.316c-0.3,0-0.55-0.104-0.758-0.316
		c-0.209-0.209-0.311-0.466-0.311-0.761C81.433,60.716,81.468,60.553,81.544,60.389"/>
</g>
</svg>
